<svg width="313" height="53" viewBox="0 0 313 53" fill="none" xmlns="http://www.w3.org/2000/svg">
<g clip-path="url(#clip0_5170_1305)">
<path d="M56.8708 24.6881C72.6429 24.7082 85.8285 36.7418 87.3574 52.5112H92.9251C92.8365 51.5612 92.7183 50.6291 92.5705 49.7028L92.9251 49.6375L97.0625 49.2872C97.0625 49.1625 97.0625 49.0378 97.0212 48.9131C96.345 44.7038 95.0167 40.6268 93.0847 36.8303L89.0419 38.9084C87.3175 35.5143 85.0738 32.4128 82.3926 29.7172L85.5783 26.505C82.5577 23.4789 79.081 20.9501 75.2763 19.0119L73.243 23.0672C69.8621 21.343 66.2319 20.1648 62.4858 19.5759L63.1951 15.0634C61.0756 14.7316 58.9332 14.5688 56.7881 14.5766V24.6703H56.8767" fill="#F7941E"/>
<path d="M56.8709 30.9047H56.7822V52.5053H81.1159C79.6242 40.1914 69.2311 30.9248 56.8827 30.8987" fill="#F7941E"/>
<path d="M56.7828 24.6941V14.6003C54.6645 14.6057 52.5499 14.7784 50.4586 15.1169L51.1796 19.6175C47.4328 20.2081 43.8035 21.3947 40.4284 23.1325L38.3715 19.0475C34.5649 20.9997 31.0899 23.5447 28.0753 26.5882L31.2729 29.7885C28.5981 32.4922 26.3605 35.5994 24.6413 38.9975L20.6044 36.9313C18.6641 40.7495 17.3356 44.8512 16.668 49.0854L21.16 49.7978C21.0181 50.6944 20.9058 51.5791 20.8172 52.5232H26.3849C27.908 36.7873 41.0446 24.7659 56.7828 24.706" fill="#FBB040"/>
<path d="M56.7824 30.9106C44.4653 30.9751 34.1167 40.2288 32.626 52.5113H56.7824V30.9106Z" fill="#FBB040"/>
<path d="M84.1617 13.5256L84.9959 16.2478H87.7059L85.5125 17.9285L86.3509 20.6506L84.1617 18.97L81.9683 20.6506L82.8067 17.9285L80.6133 16.2478H83.3233L84.1617 13.5256Z" fill="#FAA735"/>
<path d="M57.7396 0C54.6705 0.00653184 52.1842 2.50418 52.1777 5.58719C52.1847 8.53598 54.101 11.1371 56.9062 12.0056V10.0462C55.1543 9.26035 54.0251 7.51451 54.0218 5.58719C54.0251 3.53249 55.6824 1.86764 57.7277 1.86437C59.2606 1.86764 60.5025 3.11513 60.5057 4.655C60.5057 5.78632 59.5927 6.70343 58.4666 6.70343C57.6701 6.70343 57.0244 6.05481 57.0244 5.25469C57.0228 4.99595 57.1244 4.74734 57.3065 4.56438C57.4887 4.38142 57.7362 4.27934 57.9937 4.28093V2.41656C56.4334 2.41656 55.1685 3.68724 55.1685 5.25469C55.1685 7.08448 56.6451 8.56781 58.4666 8.56781C60.6164 8.56454 62.3584 6.81463 62.3616 4.655C62.3584 2.08547 60.2856 0.00327097 57.7277 0" fill="#00ADBD"/>
<path d="M9.07268 42.7797C8.95329 42.7914 8.83277 42.7793 8.71805 42.744L0 40.1612L0.526038 38.38L6.70846 40.2147L5.41406 38.3503C5.18039 38.0154 5.1913 37.5666 5.44095 37.2436C5.69061 36.9205 6.12071 36.7987 6.5016 36.9431L15.5034 40.3809L14.8414 42.1265L8.65303 39.7515L9.74057 41.319C9.9704 41.6401 9.9704 42.0727 9.74057 42.3937C9.58494 42.6115 9.34401 42.7519 9.07859 42.7797" fill="#00ADBD"/>
<path d="M28.1551 14.1052C29.6011 13.0416 31.5335 13.2223 32.4711 14.5087C33.4087 15.7951 32.9965 17.7002 31.5504 18.7638C30.1043 19.8274 28.1719 19.6467 27.2343 18.3603C26.2967 17.0738 26.709 15.1687 28.1551 14.1052Z" fill="#FBB040"/>
<path d="M108.025 41.0554C106.686 41.5868 105.851 38.9216 104.999 39.2595C104.148 39.5973 104.865 42.3 104.014 42.6393C103.162 42.9785 101.838 40.5125 100.986 40.8524C100.133 41.1922 100.851 43.9024 99.9985 44.241C99.1455 44.5796 98.3115 41.9136 96.9717 42.4453" stroke="#00ADBD" stroke-width="1.5" stroke-linejoin="round"/>
<path d="M127.067 15.4558C127.101 10.9116 130.736 7.22364 135.259 7.14326C136.655 7.14104 138.032 7.47709 139.272 8.12294C139.504 8.26573 139.643 8.52087 139.638 8.79388C139.643 8.9949 139.568 9.1895 139.429 9.33444C139.29 9.47937 139.1 9.56264 138.9 9.56575C138.779 9.55646 138.66 9.52423 138.551 9.47075C136.069 8.1158 133.011 8.45146 130.879 10.3127C128.748 12.174 127.991 15.1695 128.981 17.8268C129.971 20.484 132.499 22.2443 135.324 22.2423C136.61 22.2438 137.87 21.8683 138.947 21.1617C139.071 21.0835 139.215 21.0442 139.361 21.0489C139.696 21.0484 139.992 21.2719 140.084 21.5962C140.176 21.9205 140.042 22.2668 139.757 22.4442C138.419 23.2809 136.876 23.7251 135.3 23.7267C130.753 23.7106 127.064 20.0236 127.025 15.4558" fill="#808285"/>
<path d="M150.567 21.9573V16.7798C150.567 14.5711 149.385 12.962 146.903 12.962C145.987 12.9101 145.09 13.2366 144.42 13.8657C143.751 14.4949 143.366 15.3718 143.356 16.293V21.9573C143.356 22.7945 143.031 23.5367 142.174 23.5842C141.955 23.6108 141.735 23.5466 141.565 23.4066C141.394 23.2665 141.288 23.0627 141.27 22.842C141.251 22.5442 141.429 22.2693 141.707 22.1651C141.824 22.1157 141.901 22.0015 141.902 21.8742V8.25359C141.911 8.12887 141.846 8.01067 141.737 7.95077C141.47 7.83265 141.298 7.56685 141.299 7.2739C141.304 7.0702 141.39 6.87687 141.538 6.73732C141.685 6.59778 141.883 6.5237 142.086 6.53172C142.943 6.53172 143.386 7.2739 143.386 8.15859V13.3777C144.143 12.1502 145.496 11.4232 146.932 11.4717C150.479 11.4717 152.08 13.4964 152.08 16.9698V21.8742C152.071 21.9976 152.133 22.1155 152.24 22.177C152.508 22.2946 152.682 22.56 152.683 22.8539C152.679 23.0587 152.592 23.253 152.443 23.3927C152.294 23.5324 152.095 23.6057 151.891 23.5961C151.034 23.5961 150.597 22.8539 150.597 21.9692" fill="#808285"/>
<path d="M154.415 21.9573V13.1936C154.424 13.0688 154.359 12.9506 154.25 12.8907C153.983 12.7726 153.811 12.5068 153.813 12.2139C153.817 12.0102 153.903 11.8168 154.051 11.6773C154.199 11.5377 154.396 11.4637 154.599 11.4717C155.462 11.4717 155.899 12.2139 155.899 13.0986V21.8742C155.891 21.9989 155.955 22.1171 156.064 22.177C156.331 22.2951 156.503 22.5609 156.502 22.8539C156.497 23.0576 156.411 23.2509 156.264 23.3904C156.116 23.53 155.918 23.6041 155.716 23.596C154.859 23.596 154.415 22.8539 154.415 21.9692M153.86 7.62418C153.858 7.34024 153.97 7.06747 154.17 6.8667C154.37 6.66592 154.641 6.55384 154.924 6.55543C155.51 6.54857 155.995 7.01199 156.017 7.60042C156.017 7.89175 155.902 8.17115 155.697 8.37715C155.492 8.58314 155.214 8.69886 154.924 8.69886C154.338 8.68925 153.866 8.21275 153.86 7.62418Z" fill="#808285"/>
<path d="M158.263 21.9573V8.25354C158.272 8.13012 158.21 8.01225 158.103 7.95072C157.835 7.83317 157.661 7.56775 157.66 7.27386C157.665 7.06907 157.751 6.8748 157.9 6.73508C158.05 6.59536 158.248 6.52202 158.452 6.53167C159.309 6.53167 159.752 7.27385 159.752 8.15854V21.8742C159.743 21.9976 159.805 22.1155 159.912 22.177C160.18 22.2945 160.354 22.56 160.355 22.8538C160.351 23.0586 160.264 23.2529 160.115 23.3926C159.966 23.5323 159.767 23.6057 159.563 23.596C158.706 23.596 158.263 22.8539 158.263 21.9692" fill="#808285"/>
<path d="M171.455 21.9573V21.3635C170.578 22.7733 169.032 23.62 167.377 23.596H167.164C164.103 23.596 161.845 20.7104 161.845 17.4032C161.845 14.096 164.162 11.4657 167.365 11.4657C168.92 11.4657 170.752 12.2079 171.443 13.6329V8.15854C171.443 7.27385 171.887 6.53167 172.744 6.53167C172.947 6.52202 173.146 6.59536 173.295 6.73508C173.445 6.8748 173.531 7.06907 173.536 7.27386C173.534 7.56775 173.361 7.83317 173.092 7.95072C172.983 8.01062 172.919 8.12883 172.927 8.25354V21.8742C172.919 21.9989 172.983 22.1171 173.092 22.177C173.361 22.2945 173.534 22.56 173.536 22.8538C173.531 23.0586 173.445 23.2529 173.295 23.3926C173.146 23.5323 172.947 23.6057 172.744 23.596C171.887 23.596 171.443 22.8539 171.443 21.9692M167.407 12.9679C164.924 12.9679 163.346 15.0639 163.346 17.421C163.346 19.7782 164.9 22.1235 167.407 22.1235C169.913 22.1235 171.461 19.7485 171.461 17.3735C171.461 14.9985 169.818 12.9442 167.407 12.9442" fill="#808285"/>
<path d="M176.981 12.3089C177.027 12.4671 177.051 12.631 177.052 12.7958C177.688 11.8716 178.742 11.3296 179.86 11.353C180.58 11.3528 181.294 11.4794 181.97 11.727C182.288 11.8293 182.497 12.1344 182.478 12.4692C182.48 12.7173 182.359 12.9499 182.155 13.0902C181.951 13.2306 181.692 13.2604 181.462 13.1698C180.945 12.996 180.405 12.9019 179.86 12.8908C178.536 12.8908 177.147 13.5914 177.147 15.058V21.9573C177.147 22.842 176.704 23.5842 175.847 23.5842C175.644 23.5922 175.447 23.5181 175.299 23.3786C175.151 23.239 175.065 23.0457 175.061 22.842C175.059 22.5491 175.231 22.2833 175.498 22.1651C175.607 22.1052 175.672 21.9871 175.663 21.8623V13.1936C175.672 13.0689 175.607 12.9507 175.498 12.8908C175.231 12.7726 175.059 12.5068 175.061 12.2139C175.065 12.0102 175.151 11.8169 175.299 11.6773C175.447 11.5378 175.644 11.4637 175.847 11.4717C176.367 11.4694 176.828 11.8093 176.981 12.3089Z" fill="#808285"/>
<path d="M184.334 18.2761C184.636 20.3245 186.309 22.2127 188.472 22.2127C189.775 22.2918 191.054 21.8377 192.018 20.9539C192.175 20.798 192.389 20.7141 192.609 20.7223C192.904 20.7138 193.175 20.8867 193.292 21.1588C193.409 21.4308 193.349 21.7472 193.141 21.9574C192.101 23.0736 190.594 23.703 188.484 23.703C185.144 23.703 182.821 20.8114 182.821 17.5042C182.821 14.3336 185.144 11.353 188.484 11.353C191.823 11.353 194.187 14.3217 194.187 17.5042C194.175 17.932 193.827 18.2731 193.401 18.2761H184.334ZM192.686 16.7799C192.408 14.7077 190.67 12.8433 188.49 12.8433C186.337 12.9613 184.586 14.6272 184.352 16.7799H192.686Z" fill="#808285"/>
<path d="M204.702 21.9573V16.7798C204.702 14.5711 203.726 12.962 201.037 12.962C200.099 12.9155 199.183 13.2635 198.511 13.9224C197.838 14.5813 197.468 15.4918 197.491 16.4354V21.9573C197.491 22.842 197.053 23.5842 196.191 23.5842C195.988 23.5922 195.79 23.5181 195.643 23.3786C195.495 23.239 195.409 23.0457 195.404 22.842C195.403 22.549 195.575 22.2832 195.842 22.1651C195.951 22.1052 196.016 21.987 196.007 21.8623V13.241C196.021 13.1211 195.953 13.0068 195.842 12.962C195.573 12.8332 195.403 12.5603 195.404 12.2614C195.401 12.0551 195.48 11.856 195.623 11.7079C195.766 11.5598 195.961 11.4748 196.167 11.4717C196.983 11.4717 197.491 12.0298 197.491 12.9857V13.4014C198.276 12.2013 199.608 11.4767 201.037 11.4717C204.448 11.4717 206.185 13.4964 206.185 16.9698V21.8742C206.176 21.9976 206.238 22.1155 206.345 22.177C206.613 22.2945 206.787 22.56 206.788 22.8539C206.784 23.0576 206.698 23.2509 206.55 23.3904C206.402 23.53 206.205 23.6041 206.002 23.596C205.139 23.596 204.702 22.8539 204.702 21.9692" fill="#808285"/>
<path d="M208.757 8.65144C208.491 8.65013 208.237 8.5397 208.054 8.34576C207.871 8.15181 207.775 7.89117 207.788 7.62424C207.837 7.00577 208.352 6.52976 208.97 6.53174C209.921 6.53174 210.43 7.57673 210.43 8.41392C210.43 9.69642 209.36 10.7236 208.32 11.2342C208.06 11.384 207.73 11.3151 207.551 11.0739C207.42 10.7896 207.531 10.4516 207.805 10.3021C208.464 9.95864 208.933 9.33454 209.082 8.60393C208.968 8.63178 208.851 8.64771 208.733 8.65144" fill="#808285"/>
<path d="M215.193 23.703C213.971 23.656 212.785 23.2785 211.759 22.6105C211.551 22.4704 211.428 22.233 211.434 21.9811C211.452 21.6864 211.638 21.4286 211.91 21.3182C212.183 21.2079 212.494 21.2649 212.711 21.4645C213.469 21.977 214.368 22.2386 215.282 22.2127C216.724 22.2127 218.042 21.512 218.042 20.5561C218.042 19.3686 216.582 18.858 215.258 18.3177C213.727 17.7239 211.387 16.7145 211.387 14.6127C211.387 12.7483 213.314 11.353 215.471 11.353C216.654 11.3497 217.804 11.7425 218.739 12.4692C218.923 12.6273 219.033 12.8556 219.041 13.0986C219.026 13.3835 218.852 13.6355 218.592 13.7498C218.332 13.8642 218.03 13.8213 217.811 13.6389C217.134 13.1162 216.302 12.8362 215.447 12.8433C214.052 12.8433 212.847 13.6567 212.847 14.6246C212.847 15.7467 214.496 16.3761 215.607 16.8155C217.327 17.5161 219.526 18.5967 219.526 20.5442C219.526 22.8539 216.978 23.6911 215.169 23.6911" fill="#808285"/>
<path d="M242.695 7.95077C242.894 7.53055 243.32 7.26594 243.783 7.2739C243.987 7.26589 244.186 7.34059 244.335 7.48124C244.484 7.6219 244.57 7.81675 244.575 8.02203C244.573 8.31592 244.4 8.58134 244.131 8.6989C244.02 8.75649 243.954 8.87632 243.966 9.00171V21.8742C243.958 21.9989 244.022 22.1171 244.131 22.177C244.4 22.2946 244.573 22.56 244.575 22.8539C244.57 23.0587 244.484 23.2529 244.334 23.3927C244.185 23.5324 243.986 23.6057 243.783 23.5961C242.926 23.5961 242.482 22.8539 242.482 21.9692V13.2173L242.553 11.2817L241.513 13.2173L236.731 21.4883C236.605 21.7319 236.355 21.8847 236.081 21.8847C235.808 21.8847 235.557 21.7319 235.431 21.4883L230.632 13.1758L229.609 11.2639L229.68 13.1995V21.9395C229.68 22.8242 229.243 23.5664 228.38 23.5664C228.177 23.5744 227.98 23.5003 227.832 23.3608C227.684 23.2212 227.598 23.0279 227.594 22.8242C227.592 22.5294 227.767 22.2624 228.037 22.1473C228.144 22.0858 228.206 21.968 228.197 21.8445V9.00171C228.209 8.87767 228.146 8.7582 228.037 8.6989C227.767 8.58384 227.592 8.31686 227.594 8.02203C227.597 7.81728 227.682 7.62242 227.83 7.48159C227.978 7.34076 228.176 7.26588 228.38 7.2739C228.845 7.26359 229.273 7.52856 229.473 7.95077C229.473 7.99827 229.521 8.04578 236.105 19.5764C242.695 8.04578 242.719 7.99827 242.742 7.95077" fill="#808285"/>
<path d="M255.567 21.7198C254.894 22.9548 253.109 23.5842 252.063 23.5842C248.605 23.5842 246.796 21.7436 246.796 18.2761V13.1936C246.806 13.0702 246.744 12.9523 246.637 12.8908C246.369 12.7732 246.195 12.5078 246.193 12.2139C246.198 12.0091 246.285 11.8149 246.434 11.6751C246.583 11.5354 246.782 11.4621 246.985 11.4717C247.842 11.4717 248.28 12.2139 248.28 13.0986V18.2761C248.28 20.9064 249.462 22.0939 252.11 22.0939C254.078 22.0939 255.567 20.8114 255.567 18.8817V13.0986C255.567 12.2139 256.005 11.4717 256.862 11.4717C257.066 11.4621 257.264 11.5354 257.414 11.6751C257.563 11.8149 257.649 12.0091 257.654 12.2139C257.653 12.5078 257.479 12.7732 257.211 12.8908C257.104 12.9523 257.042 13.0702 257.051 13.1936V21.8742C257.042 21.9976 257.104 22.1155 257.211 22.177C257.479 22.2946 257.653 22.56 257.654 22.8539C257.649 23.0587 257.563 23.253 257.414 23.3927C257.264 23.5324 257.066 23.6057 256.862 23.5961C255.845 23.5961 255.497 22.6224 255.567 21.7317" fill="#808285"/>
<path d="M263.068 23.703C261.847 23.6551 260.66 23.2777 259.634 22.6105C259.428 22.4681 259.306 22.2322 259.309 21.9811C259.327 21.6864 259.513 21.4286 259.785 21.3182C260.058 21.2079 260.369 21.2649 260.586 21.4645C261.347 21.976 262.247 22.2374 263.163 22.2127C264.599 22.2127 265.923 21.512 265.923 20.5561C265.923 19.3686 264.457 18.858 263.139 18.3177C261.608 17.7239 259.262 16.7145 259.262 14.6127C259.262 12.7483 261.189 11.353 263.346 11.353C264.529 11.3497 265.679 11.7425 266.614 12.4692C266.801 12.6254 266.911 12.8549 266.916 13.0986C266.901 13.3835 266.727 13.6355 266.467 13.7498C266.207 13.8642 265.905 13.8213 265.686 13.6389C265.009 13.1154 264.177 12.8353 263.322 12.8433C261.933 12.8433 260.728 13.6567 260.728 14.6246C260.728 15.7467 262.371 16.3761 263.488 16.8155C265.202 17.5161 267.406 18.5967 267.406 20.5442C267.406 22.8539 264.853 23.6911 263.044 23.6911" fill="#808285"/>
<path d="M269.925 18.2761C270.227 20.3245 271.893 22.2127 274.063 22.2127C275.366 22.2925 276.645 21.8383 277.609 20.9539C277.766 20.7986 277.98 20.7149 278.2 20.7223C278.59 20.7215 278.914 21.0258 278.939 21.417C278.944 21.6175 278.869 21.8117 278.732 21.9574C277.686 23.0736 276.179 23.703 274.069 23.703C270.729 23.703 268.406 20.8114 268.406 17.5042C268.406 14.3336 270.729 11.353 274.069 11.353C277.408 11.353 279.772 14.3217 279.772 17.5042C279.76 17.932 279.412 18.2731 278.986 18.2761H269.925ZM278.271 16.7799C277.993 14.7077 276.255 12.8433 274.074 12.8433C271.921 12.9589 270.169 14.6261 269.937 16.7799H278.271Z" fill="#808285"/>
<path d="M290.381 21.7198C289.707 22.9548 287.922 23.5842 286.876 23.5842C283.424 23.5842 281.61 21.7436 281.61 18.2761V13.1936C281.619 13.0702 281.557 12.9523 281.45 12.8908C281.182 12.7732 281.008 12.5078 281.007 12.2139C281.011 12.0091 281.098 11.8149 281.247 11.6751C281.396 11.5354 281.595 11.4621 281.799 11.4717C282.656 11.4717 283.099 12.2139 283.099 13.0986V18.2761C283.099 20.9064 284.281 22.0939 286.923 22.0939C288.897 22.0939 290.381 20.8114 290.381 18.8817V13.0986C290.381 12.2139 290.818 11.4717 291.681 11.4717C291.884 11.4637 292.081 11.5378 292.229 11.6773C292.377 11.8169 292.463 12.0102 292.467 12.2139C292.469 12.5087 292.294 12.7757 292.024 12.8908C291.917 12.9523 291.855 13.0702 291.865 13.1936V21.8742C291.855 21.9976 291.917 22.1155 292.024 22.177C292.294 22.2921 292.469 22.5591 292.467 22.8539C292.463 23.0576 292.377 23.2509 292.229 23.3905C292.081 23.53 291.884 23.6041 291.681 23.5961C290.659 23.5961 290.31 22.6224 290.381 21.7317" fill="#808285"/>
<path d="M294.323 22.842C294.322 22.5491 294.494 22.2833 294.761 22.1651C294.87 22.1052 294.935 21.987 294.926 21.8623V13.1936C294.935 13.0689 294.87 12.9507 294.761 12.8908C294.494 12.7726 294.322 12.5068 294.323 12.2139C294.328 12.0102 294.414 11.8169 294.562 11.6773C294.709 11.5378 294.907 11.4637 295.11 11.4717C295.925 11.4717 296.363 12.1664 296.41 13.0095V13.1698C297.129 12.0684 298.368 11.4244 299.678 11.4717C301.121 11.4717 302.764 11.9111 303.556 13.5201C304.358 12.2066 305.799 11.425 307.333 11.4717C308.519 11.4179 309.672 11.8706 310.507 12.7179C311.343 13.5652 311.783 14.728 311.718 15.9189V21.8564C311.71 21.9811 311.774 22.0993 311.884 22.1592C312.151 22.2773 312.322 22.5431 312.321 22.8361C312.316 23.0398 312.231 23.2331 312.083 23.3727C311.935 23.5122 311.738 23.5863 311.535 23.5783C310.678 23.5783 310.235 22.8361 310.235 21.9514V15.8951C310.264 15.1024 309.96 14.3337 309.399 13.7761C308.837 13.2185 308.068 12.9232 307.279 12.962C305.305 12.962 304.052 14.0783 304.052 16.1089V22.842C304.049 23.2506 303.72 23.581 303.313 23.5842C302.908 23.5749 302.581 23.2489 302.569 22.842V15.8951C302.569 13.6804 300.967 12.962 299.613 12.962C298.75 12.9012 297.902 13.2156 297.284 13.8255C296.667 14.4353 296.34 15.282 296.386 16.1504V21.9573C296.386 22.842 295.943 23.5842 295.086 23.5842C294.883 23.5922 294.686 23.5181 294.538 23.3786C294.39 23.239 294.304 23.0457 294.3 22.842" fill="#808285"/>
<path d="M127.025 39.7936C127.032 36.3774 129.793 33.6131 133.194 33.6186C136.595 33.6241 139.347 36.3972 139.343 39.8134C139.339 43.2295 136.579 45.9956 133.178 45.9923C131.544 45.9908 129.977 45.3366 128.823 44.1739C127.669 43.0113 127.022 41.4355 127.025 39.7936ZM128.491 39.7936C128.467 41.7091 129.598 43.4492 131.353 44.1978C133.109 44.9465 135.14 44.5553 136.495 43.2076C137.851 41.8599 138.261 39.8231 137.533 38.0523C136.806 36.2815 135.085 35.128 133.178 35.1326C130.617 35.1547 128.539 37.2212 128.491 39.7936Z" fill="#808285"/>
<path d="M140.992 45.1314C140.989 44.838 141.161 44.5714 141.429 44.4545C141.539 44.3946 141.603 44.2764 141.595 44.1517V35.2454H140.803C140.421 35.2139 140.135 34.8813 140.159 34.4973C140.152 34.2985 140.228 34.1058 140.368 33.9651C140.508 33.8245 140.7 33.7484 140.897 33.7551H141.595V32.7279C141.595 30.6558 142.546 28.8151 145.005 28.8151C145.607 28.8141 146.206 28.9082 146.778 29.0942C147.108 29.1895 147.334 29.4922 147.334 29.8364C147.325 30.0782 147.206 30.3024 147.011 30.444C146.816 30.5856 146.566 30.6287 146.335 30.5608C145.909 30.4166 145.466 30.3307 145.017 30.3055C143.575 30.3055 143.09 31.0951 143.09 32.7279V33.7492H146.105C146.302 33.746 146.492 33.823 146.633 33.9627C146.773 34.1024 146.851 34.293 146.849 34.4914C146.873 34.8775 146.583 35.211 146.199 35.2395H143.09V44.2348C143.09 45.1195 142.647 45.8617 141.79 45.8617C141.587 45.8697 141.39 45.7956 141.242 45.6561C141.094 45.5165 141.008 45.3232 141.004 45.1195" fill="#808285"/>
<path d="M160.988 30.0324L166.207 44.0805C166.238 44.2283 166.359 44.3402 166.508 44.3595C166.856 44.4379 167.102 44.7496 167.099 45.1077C167.087 45.3246 166.989 45.5277 166.827 45.6716C166.665 45.8155 166.452 45.8882 166.236 45.8736C165.568 45.8051 165.009 45.3348 164.824 44.6861L163.594 41.3314H156.673L155.444 44.6861C155.256 45.3357 154.695 45.8058 154.025 45.8736C153.81 45.8866 153.599 45.8131 153.438 45.6694C153.277 45.5257 153.18 45.3236 153.168 45.1077C153.163 44.7488 153.41 44.4358 153.759 44.3595C153.907 44.337 154.026 44.2265 154.061 44.0805L159.28 30.0324C159.417 29.6755 159.759 29.4402 160.14 29.4402C160.52 29.4402 160.862 29.6755 161 30.0324M160.716 33.6424L160.125 31.778L159.569 33.6424L157.205 39.8649H163.115L160.716 33.6424Z" fill="#808285"/>
<path d="M169.936 31.8967V33.7492H172.584C172.964 33.7777 173.251 34.1086 173.228 34.4914C173.233 34.6903 173.157 34.8825 173.017 35.0237C172.878 35.1649 172.687 35.2428 172.489 35.2395H169.936V41.468C169.936 42.9167 170.166 44.3595 171.862 44.3595C172.312 44.3394 172.757 44.2616 173.186 44.128C173.38 44.0654 173.591 44.0844 173.77 44.1807C173.949 44.2769 174.082 44.4422 174.138 44.6386C174.202 44.8308 174.182 45.0409 174.084 45.218C173.987 45.3951 173.82 45.523 173.624 45.5708C173.051 45.7567 172.453 45.8509 171.851 45.8499C169.392 45.8499 168.44 44.1992 168.44 41.468V35.2514H167.778C167.58 35.2564 167.388 35.179 167.248 35.0374C167.108 34.8959 167.033 34.7026 167.039 34.5033C167.016 34.1183 167.306 33.7865 167.69 33.7611H168.476V31.9798C168.485 31.8564 168.423 31.7386 168.316 31.677C168.044 31.5646 167.868 31.296 167.873 31.0002C167.877 30.7965 167.963 30.6031 168.111 30.4636C168.259 30.3241 168.456 30.25 168.659 30.258C169.522 30.258 169.959 31.0002 169.959 31.8908" fill="#808285"/>
<path d="M176.054 44.2467V30.5429C176.063 30.4195 176.001 30.3016 175.894 30.2401C175.64 30.1236 175.473 29.8732 175.463 29.5929C175.467 29.3892 175.553 29.1959 175.701 29.0564C175.849 28.9168 176.046 28.8427 176.249 28.8507C177.112 28.8507 177.549 29.5929 177.549 30.4776V44.1814C177.541 44.3061 177.606 44.4243 177.715 44.4842C177.983 44.6011 178.155 44.8677 178.152 45.1611C178.148 45.3648 178.062 45.5581 177.914 45.6976C177.766 45.8372 177.569 45.9113 177.366 45.9032C176.509 45.9032 176.066 45.1611 176.066 44.2764" fill="#808285"/>
<path d="M187.727 44.7811C187.686 44.5499 187.671 44.315 187.68 44.0805C187.03 45.268 185.316 45.9923 183.968 45.9923C181.675 45.9923 179.541 44.6386 179.541 42.1211C179.541 39.093 182 37.7214 184.825 37.7214C185.827 37.7234 186.811 37.9874 187.68 38.4873V37.8342C187.686 37.3734 187.64 36.9133 187.544 36.4627C187.172 35.4355 185.848 35.1326 184.506 35.1326C183.6 35.1405 182.699 35.2826 181.834 35.5542C181.728 35.5816 181.619 35.5975 181.509 35.6017C181.315 35.6119 181.125 35.5391 180.986 35.4012C180.848 35.2633 180.774 35.073 180.782 34.8773C180.794 34.5618 180.995 34.2849 181.291 34.1767C182.288 33.8191 183.34 33.6383 184.399 33.6423C186.326 33.6423 188.247 34.1767 188.921 35.9283C189.107 36.5312 189.185 37.1624 189.152 37.7926V44.1517C189.143 44.2764 189.208 44.3946 189.317 44.4545C189.584 44.5726 189.756 44.8385 189.754 45.1314C189.756 45.5804 189.414 45.9552 188.968 45.9923C188.329 45.9318 187.813 45.4424 187.715 44.8048M187.668 39.9598C186.782 39.4483 185.77 39.1973 184.748 39.2355C182.869 39.2355 181.013 40.0726 181.013 42.127C181.013 43.7776 182.52 44.5495 184.003 44.5495C185.718 44.5495 187.668 43.4273 187.668 41.5155V39.9598Z" fill="#808285"/>
<path d="M200.553 44.2467V39.093C200.553 36.8783 199.578 35.2752 196.889 35.2752C195.951 35.2288 195.037 35.576 194.364 36.2336C193.692 36.8912 193.321 37.8001 193.342 38.7427V44.2705C193.342 45.1552 192.905 45.8974 192.048 45.8974C191.844 45.907 191.645 45.8337 191.496 45.6939C191.347 45.5542 191.26 45.36 191.256 45.1552C191.256 44.8608 191.43 44.5946 191.699 44.4783C191.806 44.4168 191.868 44.2989 191.859 44.1755V35.5305C191.874 35.4121 191.808 35.2982 191.699 35.2514C191.373 35.0942 191.197 34.7321 191.274 34.377C191.352 34.0219 191.662 33.7669 192.024 33.7611C192.834 33.7611 193.342 34.3192 193.342 35.2752V35.6908C194.127 34.4908 195.459 33.7661 196.889 33.7611C200.299 33.7611 202.037 35.7858 202.037 39.2592V44.1517C202.028 44.2764 202.093 44.3946 202.202 44.4546C202.47 44.5714 202.642 44.838 202.64 45.1314C202.635 45.3351 202.549 45.5285 202.401 45.668C202.254 45.8075 202.056 45.8816 201.853 45.8736C200.996 45.8736 200.553 45.1314 200.553 44.2467Z" fill="#808285"/>
<path d="M206.144 31.8967V33.7492H208.786C209.169 33.7746 209.46 34.1064 209.436 34.4914C209.439 34.6908 209.362 34.883 209.222 35.024C209.081 35.165 208.89 35.2428 208.691 35.2395H206.144V41.468C206.144 42.9167 206.374 44.3595 208.065 44.3595C208.514 44.3399 208.959 44.2621 209.389 44.128C209.582 44.0654 209.793 44.0844 209.972 44.1807C210.152 44.2769 210.285 44.4422 210.34 44.6386C210.406 44.8299 210.388 45.0401 210.291 45.2176C210.195 45.395 210.028 45.5233 209.832 45.5708C209.259 45.7556 208.661 45.8498 208.059 45.8499C205.606 45.8499 204.654 44.1992 204.654 41.468V35.2514H203.957C203.758 35.2581 203.564 35.1814 203.423 35.0396C203.282 34.8979 203.206 34.7037 203.212 34.5033C203.189 34.1183 203.479 33.7865 203.862 33.7611H204.654V31.9798C204.663 31.8551 204.598 31.7369 204.489 31.677C204.22 31.5614 204.047 31.294 204.052 31.0002C204.056 30.7965 204.142 30.6031 204.29 30.4636C204.438 30.3241 204.635 30.25 204.838 30.258C205.695 30.258 206.138 31.0002 206.138 31.8908" fill="#808285"/>
<path d="M219.041 44.7811C219 44.5499 218.984 44.315 218.993 44.0804C218.343 45.2679 216.629 45.9923 215.282 45.9923C212.982 45.9923 210.849 44.6386 210.849 42.1211C210.849 39.0929 213.307 37.7214 216.139 37.7214C217.14 37.7242 218.124 37.9881 218.993 38.4873V37.8342C219.001 37.3729 218.954 36.9124 218.852 36.4626C218.479 35.4354 217.161 35.1326 215.813 35.1326C214.909 35.141 214.011 35.283 213.148 35.5542C213.041 35.5816 212.932 35.5975 212.823 35.6017C212.631 35.6067 212.445 35.5318 212.309 35.3947C212.174 35.2575 212.101 35.0703 212.108 34.8773C212.122 34.5608 212.325 34.2844 212.622 34.1767C213.618 33.8197 214.668 33.6389 215.725 33.6423C217.652 33.6423 219.579 34.1767 220.252 35.9283C220.438 36.5312 220.516 37.1624 220.483 37.7926V44.1517C220.473 44.2751 220.535 44.393 220.642 44.4545C220.913 44.5696 221.087 44.8366 221.086 45.1314C221.084 45.5793 220.744 45.9524 220.3 45.9923C219.66 45.9317 219.144 45.4423 219.047 44.8048M218.999 39.9598C218.111 39.4484 217.097 39.1975 216.074 39.2354C214.194 39.2354 212.344 40.0726 212.344 42.127C212.344 43.7776 213.851 44.5495 215.335 44.5495C217.049 44.5495 218.999 43.4273 218.999 41.5154V39.9598Z" fill="#808285"/>
</g>
<defs>
<clipPath id="clip0_5170_1305">
<rect width="313" height="52.5232" fill="white"/>
</clipPath>
</defs>
</svg>
